<?xml version="1.0" encoding="utf-8"?>
<!-- Generator: Adobe Illustrator 24.1.2, SVG Export Plug-In . SVG Version: 6.00 Build 0)  -->
<svg version="1.1" id="Слой_1" xmlns="http://www.w3.org/2000/svg" xmlns:xlink="http://www.w3.org/1999/xlink" x="0px" y="0px"
	 viewBox="0 0 278.8 56" style="enable-background:new 0 0 278.8 56;" xml:space="preserve">
<g id="Слой_2_1_">
	<g id="A">
		<path style="fill:#00223A;" d="M219.6,46.6l0.5,8.2c-1.3,0.7-4.8,1-6.5,1c-8.8,0-15.1-5.5-15.3-15.2h9.3c0.3,3.8,3.6,6.7,7.4,6.6
			C216.5,47.1,218.1,46.9,219.6,46.6z M93.3,55.2h9.3V3.5h-9.3V55.2z M175.1,22.5c4.4,0,8.1,2.2,9.8,5.4l7.8-4.4
			c-3-6-9.7-9.9-17.6-9.9c-11.5-0.2-21,8.9-21.3,20.4c0,0.3,0,0.6,0,0.9c0,12.1,9.3,21.2,21.4,21.2c7.5,0,13.9-3.4,17.5-8.8
			l-7.8-4.8c-2.3,3.1-5.9,4.8-9.7,4.7c-6.6,0.1-12.1-5.2-12.1-11.9c0-0.1,0-0.3,0-0.4C163,27.8,168.1,22.5,175.1,22.5 M88.1,33
			c0.1-10.7-8.5-19.4-19.1-19.5c-0.2,0-0.3,0-0.5,0c-11.5-0.1-20.9,9.1-21,20.6c0,0.1,0,0.3,0,0.4C47.2,46.2,56.5,55.8,68.1,56
			c0.2,0,0.3,0,0.5,0c8.4,0,15.3-3.3,18.3-8.8l-7.4-4.8c-1.9,3.2-6.1,5.2-10.7,5.2c-6.6,0-11.1-4-12.1-10.6h31
			C87.9,35.7,88,34.3,88.1,33 M57,29.9c1.4-5.3,5.3-8.7,10.9-8.7s9.8,3.6,10.3,8.7H57z M148.5,33c0.1-10.7-8.5-19.4-19.1-19.5
			c-0.2,0-0.3,0-0.5,0c-11.5-0.1-20.9,9.1-21,20.6c0,0.1,0,0.3,0,0.4c-0.2,11.6,9,21.2,20.7,21.4c0.2,0,0.3,0,0.5,0
			c8.4,0,15.3-3.3,18.3-8.8l-7.4-4.8c-1.9,3.2-6.1,5.2-10.7,5.2c-6.6,0-11.1-4-12.1-10.6h31C148.4,35.7,148.5,34.3,148.5,33
			 M117.5,29.9c1.4-5.3,5.3-8.7,10.9-8.7s9.9,3.6,10.4,8.7H117.5z M264.3,33c0.1-10.7-8.5-19.4-19.1-19.4c-0.2,0-0.3,0-0.5,0
			c-11.5-0.1-20.9,9.1-21,20.6c0,0.1,0,0.3,0,0.4c-0.2,11.6,9.1,21.2,20.7,21.4c0.2,0,0.3,0,0.5,0c8.4,0,15.3-3.3,18.3-8.8l-7.4-4.8
			c-1.9,3.2-6.1,5.2-10.7,5.2c-6.6,0-11.1-4-12.1-10.6h31C264.2,35.7,264.3,34.3,264.3,33 M233.3,29.9c1.4-5.3,5.3-8.7,10.9-8.7
			s9.8,3.6,10.4,8.7H233.3z M269.6,55.2h9.3V3.5h-9.3V55.2z M30.8,45.6c-2.4,1.4-5.2,2.2-8,2.1c-3.1,0.1-6.2-0.9-8.7-2.7
			c-2.5-1.8-4.2-4.5-4.9-7.4L0,39c0.5,3.3,1.8,6.4,3.8,9c2.1,2.6,4.7,4.6,7.8,5.9c3.4,1.4,7,2.1,10.7,2.1c3.6,0,7.1-0.6,10.5-1.9
			c3-1.2,5.7-3.1,7.7-5.7c1.7-2.3,2.7-5,2.8-7.8H34C33.9,42.7,32.6,44.6,30.8,45.6z"/>
		<path style="fill:#E83A50;" d="M207.5,37h-9.3V23.2l0,0V3.5h9.3v10.9h12.2v8.8h-12.2V37z M41,31.3c-1.4-1.9-3.2-3.3-5.3-4.3
			c-2.2-1-4.5-1.8-6.8-2.4l-9.6-2.8c-2-0.5-4-1.2-5.8-2.3c-1.4-0.9-2.3-2.5-2.2-4.2c0-1.4,0.5-2.7,1.4-3.7c1-1.1,2.3-2,3.8-2.5
			c1.6-0.6,3.3-0.9,5-0.8c2.7,0,5.4,0.9,7.6,2.5c2.2,1.6,3.7,3.9,4.2,6.5l9.5-1.6c-0.7-3.1-2.1-6-4.1-8.5c-1.9-2.4-4.4-4.2-7.3-5.3
			C28.5,0.7,25.1,0,21.8,0c-3.4-0.1-6.9,0.5-10.1,1.8c-2.8,1.1-5.2,3-7,5.4C2.9,9.6,2,12.6,2.1,15.7c0,4.1,1.1,7.2,3.4,9.2
			c2.5,2.1,5.4,3.6,8.5,4.4L28,33.5c1.7,0.4,3.3,1.3,4.6,2.5c0.3,0.3,0.5,0.6,0.7,1h9.8C43,35,42.2,33,41,31.3z"/>
	</g>
</g>
</svg>
